<?xml version="1.0" standalone="no"?>
<!DOCTYPE svg PUBLIC "-//W3C//DTD SVG 20010904//EN"
 "http://www.w3.org/TR/2001/REC-SVG-20010904/DTD/svg10.dtd">
<svg version="1.0" xmlns="http://www.w3.org/2000/svg"
 width="260.000000pt" height="260.000000pt" viewBox="0 0 260.000000 260.000000"
 preserveAspectRatio="xMidYMid meet">
<metadata>
Created by potrace 1.14, written by Peter Selinger 2001-2017
</metadata>
<g transform="translate(0.000000,260.000000) scale(0.100000,-0.100000)"
fill="#000000" stroke="none">
<path d="M1178 2435 c-2 -2 -23 -5 -48 -8 -122 -16 -296 -77 -405 -144 -296
-181 -477 -439 -550 -788 -11 -52 -13 -287 -3 -358 13 -95 52 -224 95 -315 36
-77 96 -176 120 -200 7 -7 13 -17 13 -21 0 -14 144 -156 206 -202 134 -102
280 -174 414 -204 3 -1 32 -8 65 -15 39 -9 116 -14 220 -14 158 1 169 2 345
48 50 13 173 70 235 109 228 142 398 347 485 586 16 44 31 90 34 103 2 13 10
46 16 73 26 105 18 376 -13 490 -127 458 -475 776 -932 850 -66 11 -288 18
-297 10z"/>
</g>
</svg>
